REM DIRINDEX 1\2,1\3\5,1\3\6,1\4\7,1\4\8
REM DIRNAME folder01,folder02,folder03,folder04,folder05,folder06,folder07,folder08
TITLE ""
FILE "" MP3
  TRACK 01 AUDIO
    TITLE "0:"
    INDEX 01 00:00:00
  TRACK 02 AUDIO
    TITLE "7:cjc139_2635"
    INDEX 01 00:00:19
  TRACK 03 AUDIO
    TITLE "0:"
    INDEX 01 00:01:52
  TRACK 04 AUDIO
    TITLE "8:cjc139_2636"
    INDEX 01 00:04:36
  TRACK 05 AUDIO
    TITLE "0:"
    INDEX 01 00:05:56
  TRACK 06 AUDIO
    TITLE "7:cjc139_2637"
    INDEX 01 00:08:42
  TRACK 07 AUDIO
    TITLE "0:"
    INDEX 01 00:10:55
  TRACK 08 AUDIO
    TITLE "8:cjc139_2638"
    INDEX 01 00:13:41
  TRACK 09 AUDIO
    TITLE "0:"
    INDEX 01 00:15:21
  TRACK 10 AUDIO
    TITLE "7:cjc139_2639"
    INDEX 01 00:18:05
  TRACK 11 AUDIO
    TITLE "0:"
    INDEX 01 00:19:71
  TRACK 12 AUDIO
    TITLE "8:cjc139_2640"
    INDEX 01 00:22:54
  TRACK 13 AUDIO
    TITLE "0:"
    INDEX 01 00:24:47
  TRACK 14 AUDIO
    TITLE "7:cjc139_2641"
    INDEX 01 00:27:34
  TRACK 15 AUDIO
    TITLE "0:"
    INDEX 01 00:29:46
  TRACK 16 AUDIO
    TITLE "8:cjc139_2642"
    INDEX 01 00:32:29
  TRACK 17 AUDIO
    TITLE "0:"
    INDEX 01 00:34:12
  TRACK 18 AUDIO
    TITLE "7:cjc139_2643"
    INDEX 01 00:36:72
  TRACK 19 AUDIO
    TITLE "0:"
    INDEX 01 00:38:22
  TRACK 20 AUDIO
    TITLE "8:cjc139_2644"
    INDEX 01 00:41:04
  TRACK 21 AUDIO
    TITLE "0:"
    INDEX 01 00:42:14
  TRACK 22 AUDIO
    TITLE "7:cjc139_2645"
    INDEX 01 00:45:02
  TRACK 23 AUDIO
    TITLE "0:"
    INDEX 01 00:46:68
  TRACK 24 AUDIO
    TITLE "8:cjc139_2646"
    INDEX 01 00:49:53
  TRACK 25 AUDIO
    TITLE "0:"
    INDEX 01 00:51:16
  TRACK 26 AUDIO
    TITLE "7:cjc139_2647"
    INDEX 01 00:54:03
  TRACK 27 AUDIO
    TITLE "0:"
    INDEX 01 00:56:20
  TRACK 28 AUDIO
    TITLE "8:cjc139_2648"
    INDEX 01 00:59:04
  TRACK 29 AUDIO
    TITLE "0:"
    INDEX 01 01:00:59
  TRACK 30 AUDIO
    TITLE "7:cjc139_2649"
    INDEX 01 01:03:49
  TRACK 31 AUDIO
    TITLE "0:"
    INDEX 01 01:06:10
  TRACK 32 AUDIO
    TITLE "8:cjc139_2650"
    INDEX 01 01:08:70
  TRACK 33 AUDIO
    TITLE "0:"
    INDEX 01 01:10:69
  TRACK 34 AUDIO
    TITLE "7:cjc139_2651"
    INDEX 01 01:13:55
  TRACK 35 AUDIO
    TITLE "0:"
    INDEX 01 01:15:44
  TRACK 36 AUDIO
    TITLE "8:cjc139_2652"
    INDEX 01 01:18:29
  TRACK 37 AUDIO
    TITLE "0:"
    INDEX 01 01:19:68
  TRACK 38 AUDIO
    TITLE "7:cjc139_2653"
    INDEX 01 01:22:52
  TRACK 39 AUDIO
    TITLE "0:"
    INDEX 01 01:25:19
  TRACK 40 AUDIO
    TITLE "8:cjc139_2654"
    INDEX 01 01:28:04
  TRACK 41 AUDIO
    TITLE "0:"
    INDEX 01 01:30:17
  TRACK 42 AUDIO
    TITLE "7:cjc139_2655"
    INDEX 01 01:33:03
  TRACK 43 AUDIO
    TITLE "0:"
    INDEX 01 01:36:21
  TRACK 44 AUDIO
    TITLE "8:cjc139_2656"
    INDEX 01 01:39:08
  TRACK 45 AUDIO
    TITLE "0:"
    INDEX 01 01:41:73
  TRACK 46 AUDIO
    TITLE "7:cjc139_2657"
    INDEX 01 01:44:60
  TRACK 47 AUDIO
    TITLE "0:"
    INDEX 01 01:46:53
  TRACK 48 AUDIO
    TITLE "8:cjc139_2658"
    INDEX 01 01:49:37
  TRACK 49 AUDIO
    TITLE "0:"
    INDEX 01 01:51:36
  TRACK 50 AUDIO
    TITLE "7:cjc139_2659"
    INDEX 01 01:54:23
  TRACK 51 AUDIO
    TITLE "0:"
    INDEX 01 01:56:47
  TRACK 52 AUDIO
    TITLE "8:cjc139_2660"
    INDEX 01 01:59:32
  TRACK 53 AUDIO
    TITLE "0:"
    INDEX 01 02:01:39
  TRACK 54 AUDIO
    TITLE "7:cjc139_2661"
    INDEX 01 02:04:23
  TRACK 55 AUDIO
    TITLE "0:"
    INDEX 01 02:06:38
  TRACK 56 AUDIO
    TITLE "8:cjc139_2662"
    INDEX 01 02:09:22
  TRACK 57 AUDIO
    TITLE "0:"
    INDEX 01 02:10:45
  TRACK 58 AUDIO
    TITLE "7:cjc139_2663"
    INDEX 01 02:13:32
  TRACK 59 AUDIO
    TITLE "0:"
    INDEX 01 02:15:51
  TRACK 60 AUDIO
    TITLE "8:cjc139_2664"
    INDEX 01 02:18:35
  TRACK 61 AUDIO
    TITLE "0:"
    INDEX 01 02:20:11
  TRACK 62 AUDIO
    TITLE "7:cjc139_2665"
    INDEX 01 02:22:72
  TRACK 63 AUDIO
    TITLE "0:"
    INDEX 01 02:26:01
  TRACK 64 AUDIO
    TITLE "8:cjc139_2666"
    INDEX 01 02:28:61
  TRACK 65 AUDIO
    TITLE "0:"
    INDEX 01 02:31:16
  TRACK 66 AUDIO
    TITLE "7:cjc139_2667"
    INDEX 01 02:34:03
  TRACK 67 AUDIO
    TITLE "0:"
    INDEX 01 02:36:64
  TRACK 68 AUDIO
    TITLE "8:cjc139_2668"
    INDEX 01 02:39:47
  TRACK 69 AUDIO
    TITLE "0:"
    INDEX 01 02:41:26
  TRACK 70 AUDIO
    TITLE "7:cjc139_2669"
    INDEX 01 02:44:13
  TRACK 71 AUDIO
    TITLE "0:"
    INDEX 01 02:46:22
  TRACK 72 AUDIO
    TITLE "8:cjc139_2670"
    INDEX 01 02:49:08
  TRACK 73 AUDIO
    TITLE "0:"
    INDEX 01 02:50:47
  TRACK 74 AUDIO
    TITLE "7:cjc139_2671"
    INDEX 01 02:53:30
  TRACK 75 AUDIO
    TITLE "0:"
    INDEX 01 02:55:52
  TRACK 76 AUDIO
    TITLE "8:cjc139_2672"
    INDEX 01 02:58:35
  TRACK 77 AUDIO
    TITLE "0:"
    INDEX 01 03:00:59
  TRACK 78 AUDIO
    TITLE "7:cjc139_2673"
    INDEX 01 03:03:48
  TRACK 79 AUDIO
    TITLE "0:"
    INDEX 01 03:05:58
  TRACK 80 AUDIO
    TITLE "8:cjc139_2674"
    INDEX 01 03:08:43
  TRACK 81 AUDIO
    TITLE "0:"
    INDEX 01 03:10:61
  TRACK 82 AUDIO
    TITLE "7:cjc139_2675"
    INDEX 01 03:13:48
  TRACK 83 AUDIO
    TITLE "0:"
    INDEX 01 03:16:42
  TRACK 84 AUDIO
    TITLE "8:cjc139_2676"
    INDEX 01 03:19:27
  TRACK 85 AUDIO
    TITLE "0:"
    INDEX 01 03:21:49
  TRACK 86 AUDIO
    TITLE "7:cjc139_2677"
    INDEX 01 03:24:36
  TRACK 87 AUDIO
    TITLE "0:"
    INDEX 01 03:26:72
  TRACK 88 AUDIO
    TITLE "8:cjc139_2678"
    INDEX 01 03:29:57
  TRACK 89 AUDIO
    TITLE "0:"
    INDEX 01 03:32:04
  TRACK 90 AUDIO
    TITLE "7:cjc139_2679"
    INDEX 01 03:34:64
  TRACK 91 AUDIO
    TITLE "0:"
    INDEX 01 03:36:65
  TRACK 92 AUDIO
    TITLE "8:cjc139_2680"
    INDEX 01 03:39:49
  TRACK 93 AUDIO
    TITLE "0:"
    INDEX 01 03:41:29
  TRACK 94 AUDIO
    TITLE "7:cjc139_2681"
    INDEX 01 03:44:13
  TRACK 95 AUDIO
    TITLE "0:"
    INDEX 01 03:46:43
  TRACK 96 AUDIO
    TITLE "8:cjc139_2682"
    INDEX 01 03:49:30
  TRACK 97 AUDIO
    TITLE "0:"
    INDEX 01 03:51:37
  TRACK 98 AUDIO
    TITLE "7:cjc139_2683"
    INDEX 01 03:54:23
  TRACK 99 AUDIO
    TITLE "0:"
    INDEX 01 03:55:74
  TRACK 100 AUDIO
    TITLE "8:cjc139_2684"
    INDEX 01 03:58:58
  TRACK 101 AUDIO
    TITLE "0:"
    INDEX 01 04:01:00
  TRACK 102 AUDIO
    TITLE "7:cjc139_2685"
    INDEX 01 04:03:63
  TRACK 103 AUDIO
    TITLE "0:"
    INDEX 01 04:06:11
  TRACK 104 AUDIO
    TITLE "8:cjc139_2686"
    INDEX 01 04:08:71
  TRACK 105 AUDIO
    TITLE "0:"
    INDEX 01 04:11:41
  TRACK 106 AUDIO
    TITLE "7:cjc139_2687"
    INDEX 01 04:14:28
  TRACK 107 AUDIO
    TITLE "0:"
    INDEX 01 04:16:33
  TRACK 108 AUDIO
    TITLE "8:cjc139_2688"
    INDEX 01 04:19:19
  TRACK 109 AUDIO
    TITLE "0:"
    INDEX 01 04:21:26
  TRACK 110 AUDIO
    TITLE "7:cjc139_2689"
    INDEX 01 04:24:11
  TRACK 111 AUDIO
    TITLE "0:"
    INDEX 01 04:26:63
  TRACK 112 AUDIO
    TITLE "8:cjc139_2690"
    INDEX 01 04:29:47
  TRACK 113 AUDIO
    TITLE "0:"
    INDEX 01 04:31:28
  TRACK 114 AUDIO
    TITLE "7:cjc139_2691"
    INDEX 01 04:34:15
  TRACK 115 AUDIO
    TITLE "0:"
    INDEX 01 04:36:32
  TRACK 116 AUDIO
    TITLE "8:cjc139_2692"
    INDEX 01 04:39:18
  TRACK 117 AUDIO
    TITLE "0:"
    INDEX 01 04:41:11
  TRACK 118 AUDIO
    TITLE "7:cjc139_2693"
    INDEX 01 04:43:73
  TRACK 119 AUDIO
    TITLE "0:"
    INDEX 01 04:46:30
  TRACK 120 AUDIO
    TITLE "8:cjc139_2694"
    INDEX 01 04:49:19
  TRACK 121 AUDIO
    TITLE "0:"
    INDEX 01 04:50:49
  TRACK 122 AUDIO
    TITLE "7:cjc139_2695"
    INDEX 01 04:53:34
  TRACK 123 AUDIO
    TITLE "0:"
    INDEX 01 04:56:28
  TRACK 124 AUDIO
    TITLE "8:cjc139_2696"
    INDEX 01 04:59:15
  TRACK 125 AUDIO
    TITLE "0:"
    INDEX 01 05:01:10
